<svg xmlns="http://www.w3.org/2000/svg" xmlns:xlink="http://www.w3.org/1999/xlink" width="500" zoomAndPan="magnify" viewBox="0 0 375 374.999991" height="500" preserveAspectRatio="xMidYMid meet" version="1.2"><defs><clipPath id="b920886f90"><path d="M 209.511719 156.109375 L 292.429688 156.109375 L 292.429688 204.550781 L 209.511719 204.550781 Z M 209.511719 156.109375 "/></clipPath><clipPath id="fe0c955773"><path d="M 227.324219 156.898438 C 284.25 178.351562 286.648438 179.699219 288.523438 181.425781 C 289.800781 182.625 290.398438 183.75 291 185.023438 C 291.601562 186.300781 292.050781 187.800781 292.199219 189.226562 C 292.351562 190.648438 292.273438 192.226562 291.976562 193.648438 C 291.675781 195 291.148438 196.425781 290.398438 197.699219 C 289.648438 198.898438 288.675781 200.101562 287.550781 201.074219 C 286.5 201.976562 285.148438 202.800781 283.875 203.324219 C 282.523438 203.851562 281.023438 204.226562 279.601562 204.300781 C 278.175781 204.375 276.601562 204.226562 275.25 203.851562 C 273.824219 203.476562 272.476562 202.800781 271.273438 202.050781 C 270.074219 201.226562 268.949219 200.175781 268.050781 199.050781 C 267.148438 197.925781 266.476562 196.574219 265.949219 195.226562 C 265.5 193.800781 265.273438 192.300781 265.199219 190.875 C 265.199219 189.449219 265.5 187.949219 265.949219 186.523438 C 266.398438 185.175781 267.074219 183.824219 267.976562 182.699219 C 268.800781 181.5 269.925781 180.449219 271.125 179.625 C 272.324219 178.800781 273.675781 178.199219 275.101562 177.75 C 276.449219 177.375 277.949219 177.226562 279.449219 177.300781 C 280.875 177.375 282.375 177.675781 283.726562 178.199219 C 285 178.726562 286.351562 179.476562 287.476562 180.449219 C 288.523438 181.351562 289.574219 182.550781 290.324219 183.75 C 291.074219 184.949219 291.675781 186.375 291.976562 187.800781 C 292.273438 189.226562 292.351562 190.726562 292.199219 192.148438 C 292.050781 193.574219 291.675781 195.074219 291.074219 196.425781 C 290.476562 197.699219 289.648438 198.976562 288.675781 200.023438 C 287.625 201.074219 286.425781 202.050781 285.148438 202.726562 C 283.875 203.398438 282.449219 203.851562 281.023438 204.148438 C 279.601562 204.375 278.925781 204.523438 276.675781 204.148438 C 268.199219 202.648438 227.324219 186.523438 218.398438 181.949219 C 215.550781 180.523438 214.5 179.925781 213.074219 178.425781 C 211.648438 176.925781 210.523438 174.523438 210 172.875 C 209.625 171.675781 209.550781 170.773438 209.550781 169.726562 C 209.550781 168.601562 209.550781 167.699219 209.851562 166.5 C 210.375 164.851562 211.351562 162.375 212.699219 160.800781 C 214.050781 159.226562 215.925781 157.875 217.875 157.050781 C 219.75 156.300781 222.449219 156.074219 224.175781 156.148438 C 225.375 156.226562 227.324219 156.898438 227.324219 156.898438 "/></clipPath></defs><g id="7857a41cbc"><path style=" stroke:none;fill-rule:nonzero;fill:#ffffff;fill-opacity:1;" d="M 140.652344 90.789062 C 145.5 90.789062 149.433594 86.851562 149.433594 82.003906 L 149.433594 65 C 149.433594 43.007812 167.351562 25.089844 189.417969 25.089844 C 211.480469 25.089844 229.398438 43.007812 229.398438 65 L 229.398438 82.003906 C 229.398438 86.851562 233.335938 90.789062 238.183594 90.789062 C 243.03125 90.789062 246.964844 86.851562 246.964844 82.003906 L 246.964844 67.390625 C 246.964844 36.683594 223.917969 9.699219 193.210938 7.664062 C 159.835938 5.484375 131.867188 32.046875 131.867188 65 L 131.867188 82.003906 C 131.867188 86.851562 135.804688 90.789062 140.652344 90.789062 Z M 140.652344 90.789062 "/><path style=" stroke:none;fill-rule:nonzero;fill:#ef8121;fill-opacity:1;" d="M 325.382812 319.15625 L 306.058594 131.191406 C 304.515625 116.226562 291.9375 104.910156 276.898438 104.910156 L 101.933594 104.910156 C 86.898438 104.910156 74.320312 116.296875 72.773438 131.191406 L 67.925781 177.988281 C 64.691406 209.398438 94.558594 233.921875 124.703125 224.71875 L 141.074219 219.726562 C 159.695312 214.035156 180.492188 223.453125 187.800781 244.109375 C 190.332031 251.277344 189.980469 259.148438 187.730469 266.457031 L 180.492188 290.066406 C 170.515625 322.667969 194.898438 355.625 228.976562 355.625 L 292.5 355.625 C 312.101562 355.554688 327.421875 338.621094 325.382812 319.15625 Z M 325.382812 319.15625 "/><path style=" stroke:none;fill-rule:nonzero;fill:#ffffff;fill-opacity:1;" d="M 147.257812 239.824219 L 52.605469 268.703125 C 38.835938 272.921875 37.851562 292.03125 51.132812 297.65625 L 73.6875 307.140625 C 85.632812 312.199219 95.1875 321.6875 100.25 333.703125 L 109.734375 356.257812 C 115.355469 369.539062 134.46875 368.554688 138.683594 354.78125 L 167.5625 260.132812 C 171.429688 247.695312 159.765625 236.03125 147.257812 239.824219 Z M 147.257812 239.824219 "/><g clip-rule="nonzero" clip-path="url(#b920886f90)"><g clip-rule="nonzero" clip-path="url(#fe0c955773)"><path style=" stroke:none;fill-rule:nonzero;fill:#ef8121;fill-opacity:1;" d="M 206.550781 153.148438 L 295.179688 153.148438 L 295.179688 207.300781 L 206.550781 207.300781 Z M 206.550781 153.148438 "/></g></g></g></svg>