<svg xmlns="http://www.w3.org/2000/svg" xmlns:xlink="http://www.w3.org/1999/xlink" width="120" zoomAndPan="magnify" viewBox="0 0 90 30.000001" height="40" preserveAspectRatio="xMidYMid meet" version="1.2"><defs><clipPath id="7862069854"><path d="M 4.355469 16 L 14 16 L 14 26 L 4.355469 26 Z M 4.355469 16 "/></clipPath></defs><g id="6ff0365c0b"><path style=" stroke:none;fill-rule:nonzero;fill:#000000;fill-opacity:1;" d="M 11.699219 6.191406 C 12.042969 6.191406 12.324219 5.910156 12.324219 5.566406 L 12.324219 4.355469 C 12.324219 2.789062 13.601562 1.511719 15.171875 1.511719 C 16.742188 1.511719 18.019531 2.789062 18.019531 4.355469 L 18.019531 5.566406 C 18.019531 5.910156 18.300781 6.191406 18.644531 6.191406 C 18.988281 6.191406 19.269531 5.910156 19.269531 5.566406 L 19.269531 4.523438 C 19.269531 2.335938 17.628906 0.417969 15.441406 0.269531 C 13.066406 0.117188 11.074219 2.007812 11.074219 4.355469 L 11.074219 5.566406 C 11.074219 5.910156 11.355469 6.191406 11.699219 6.191406 Z M 11.699219 6.191406 "/><path style=" stroke:none;fill-rule:nonzero;fill:#ef8121;fill-opacity:1;" d="M 24.851562 22.449219 L 23.476562 9.066406 C 23.367188 8 22.472656 7.195312 21.402344 7.195312 L 8.941406 7.195312 C 7.871094 7.195312 6.976562 8.007812 6.867188 9.066406 L 6.519531 12.398438 C 6.292969 14.636719 8.417969 16.382812 10.5625 15.726562 L 11.730469 15.371094 C 13.054688 14.964844 14.535156 15.636719 15.058594 17.105469 C 15.238281 17.617188 15.210938 18.179688 15.050781 18.699219 L 14.535156 20.378906 C 13.824219 22.699219 15.5625 25.046875 17.988281 25.046875 L 22.511719 25.046875 C 23.90625 25.042969 25 23.835938 24.851562 22.449219 Z M 24.851562 22.449219 "/><g clip-rule="nonzero" clip-path="url(#7862069854)"><path style=" stroke:none;fill-rule:nonzero;fill:#000000;fill-opacity:1;" d="M 12.167969 16.800781 L 5.429688 18.859375 C 4.449219 19.160156 4.378906 20.519531 5.324219 20.917969 L 6.929688 21.59375 C 7.78125 21.957031 8.460938 22.628906 8.824219 23.484375 L 9.5 25.09375 C 9.898438 26.039062 11.257812 25.96875 11.558594 24.988281 L 13.617188 18.246094 C 13.890625 17.363281 13.058594 16.53125 12.167969 16.800781 Z M 12.167969 16.800781 "/></g><g style="fill:#ef8121;fill-opacity:0.4;"><g transform="translate(32.313263, 24.758299)"><path style="stroke:none" d="M 0.796875 -17.9375 L 5.65625 -17.9375 C 6.96875 -17.9375 7.921875 -17.613281 8.515625 -16.96875 C 9.109375 -16.332031 9.40625 -15.289062 9.40625 -13.84375 L 9.40625 -13.0625 C 9.40625 -11.34375 8.789062 -10.316406 7.5625 -9.984375 C 8.3125 -9.785156 8.835938 -9.332031 9.140625 -8.625 C 9.453125 -7.914062 9.609375 -6.976562 9.609375 -5.8125 C 9.609375 -3.90625 9.320312 -2.457031 8.75 -1.46875 C 8.175781 -0.488281 7.144531 0 5.65625 0 L 0.796875 0 Z M 5.03125 -11.203125 C 5.34375 -11.203125 5.550781 -11.316406 5.65625 -11.546875 C 5.769531 -11.773438 5.828125 -12.097656 5.828125 -12.515625 L 5.828125 -14.3125 C 5.828125 -14.894531 5.570312 -15.1875 5.0625 -15.1875 L 4.296875 -15.1875 L 4.296875 -11.203125 Z M 4.65625 -3.15625 C 5.59375 -3.15625 6.0625 -3.597656 6.0625 -4.484375 L 6.0625 -6.734375 C 6.0625 -7.273438 5.976562 -7.679688 5.8125 -7.953125 C 5.65625 -8.234375 5.375 -8.375 4.96875 -8.375 L 4.296875 -8.375 L 4.296875 -3.171875 Z M 4.65625 -3.15625 "/></g></g><g style="fill:#ef8121;fill-opacity:0.4;"><g transform="translate(42.313872, 24.758299)"><path style="stroke:none" d="M 3.671875 0.171875 C 2.535156 0.171875 1.753906 -0.164062 1.328125 -0.84375 C 0.898438 -1.53125 0.6875 -2.550781 0.6875 -3.90625 L 0.6875 -15.296875 L 4.359375 -15.296875 L 4.359375 -4.640625 C 4.359375 -4.535156 4.359375 -4.269531 4.359375 -3.84375 C 4.359375 -3.425781 4.425781 -3.128906 4.5625 -2.953125 C 4.695312 -2.773438 4.90625 -2.6875 5.1875 -2.6875 C 5.5625 -2.6875 5.796875 -2.84375 5.890625 -3.15625 C 5.984375 -3.476562 6.03125 -3.929688 6.03125 -4.515625 L 6.03125 -4.640625 L 6.0625 -15.296875 L 9.6875 -15.296875 L 9.6875 0 L 6.03125 0 L 6.03125 -1.625 C 5.78125 -0.988281 5.488281 -0.53125 5.15625 -0.25 C 4.820312 0.03125 4.328125 0.171875 3.671875 0.171875 Z M 3.671875 0.171875 "/></g></g><g style="fill:#ef8121;fill-opacity:0.4;"><g transform="translate(52.732045, 24.758299)"><path style="stroke:none" d="M 0.4375 0.234375 L 2.1875 0.234375 C 2.4375 0.234375 2.5625 0.128906 2.5625 -0.078125 C 2.5625 -0.179688 2.554688 -0.257812 2.546875 -0.3125 L 0.171875 -15.296875 L 3.65625 -15.296875 L 4.34375 -7.828125 L 4.671875 -4.03125 L 5.078125 -7.828125 L 5.890625 -15.296875 L 9.40625 -15.296875 L 6.5625 0.796875 C 6.457031 1.390625 6.253906 1.828125 5.953125 2.109375 C 5.660156 2.398438 5.191406 2.546875 4.546875 2.546875 L 0.4375 2.546875 Z M 0.4375 0.234375 "/></g></g><g style="fill:#ef8121;fill-opacity:1;"><g transform="translate(32.313263, 24.758299)"><path style="stroke:none" d="M 0.796875 -17.9375 L 5.65625 -17.9375 C 6.96875 -17.9375 7.921875 -17.613281 8.515625 -16.96875 C 9.109375 -16.332031 9.40625 -15.289062 9.40625 -13.84375 L 9.40625 -13.0625 C 9.40625 -11.34375 8.789062 -10.316406 7.5625 -9.984375 C 8.3125 -9.785156 8.835938 -9.332031 9.140625 -8.625 C 9.453125 -7.914062 9.609375 -6.976562 9.609375 -5.8125 C 9.609375 -3.90625 9.320312 -2.457031 8.75 -1.46875 C 8.175781 -0.488281 7.144531 0 5.65625 0 L 0.796875 0 Z M 5.03125 -11.203125 C 5.34375 -11.203125 5.550781 -11.316406 5.65625 -11.546875 C 5.769531 -11.773438 5.828125 -12.097656 5.828125 -12.515625 L 5.828125 -14.3125 C 5.828125 -14.894531 5.570312 -15.1875 5.0625 -15.1875 L 4.296875 -15.1875 L 4.296875 -11.203125 Z M 4.65625 -3.15625 C 5.59375 -3.15625 6.0625 -3.597656 6.0625 -4.484375 L 6.0625 -6.734375 C 6.0625 -7.273438 5.976562 -7.679688 5.8125 -7.953125 C 5.65625 -8.234375 5.375 -8.375 4.96875 -8.375 L 4.296875 -8.375 L 4.296875 -3.171875 Z M 4.65625 -3.15625 "/></g></g><g style="fill:#ef8121;fill-opacity:1;"><g transform="translate(42.313872, 24.758299)"><path style="stroke:none" d="M 3.671875 0.171875 C 2.535156 0.171875 1.753906 -0.164062 1.328125 -0.84375 C 0.898438 -1.53125 0.6875 -2.550781 0.6875 -3.90625 L 0.6875 -15.296875 L 4.359375 -15.296875 L 4.359375 -4.640625 C 4.359375 -4.535156 4.359375 -4.269531 4.359375 -3.84375 C 4.359375 -3.425781 4.425781 -3.128906 4.5625 -2.953125 C 4.695312 -2.773438 4.90625 -2.6875 5.1875 -2.6875 C 5.5625 -2.6875 5.796875 -2.84375 5.890625 -3.15625 C 5.984375 -3.476562 6.03125 -3.929688 6.03125 -4.515625 L 6.03125 -4.640625 L 6.0625 -15.296875 L 9.6875 -15.296875 L 9.6875 0 L 6.03125 0 L 6.03125 -1.625 C 5.78125 -0.988281 5.488281 -0.53125 5.15625 -0.25 C 4.820312 0.03125 4.328125 0.171875 3.671875 0.171875 Z M 3.671875 0.171875 "/></g></g><g style="fill:#ef8121;fill-opacity:1;"><g transform="translate(52.732045, 24.758299)"><path style="stroke:none" d="M 0.4375 0.234375 L 2.1875 0.234375 C 2.4375 0.234375 2.5625 0.128906 2.5625 -0.078125 C 2.5625 -0.179688 2.554688 -0.257812 2.546875 -0.3125 L 0.171875 -15.296875 L 3.65625 -15.296875 L 4.34375 -7.828125 L 4.671875 -4.03125 L 5.078125 -7.828125 L 5.890625 -15.296875 L 9.40625 -15.296875 L 6.5625 0.796875 C 6.457031 1.390625 6.253906 1.828125 5.953125 2.109375 C 5.660156 2.398438 5.191406 2.546875 4.546875 2.546875 L 0.4375 2.546875 Z M 0.4375 0.234375 "/></g></g><g style="fill:#000000;fill-opacity:1;"><g transform="translate(63.180465, 24.758299)"><path style="stroke:none" d="M 0.734375 -15.296875 L 4.390625 -15.296875 L 4.390625 -13.34375 C 4.535156 -13.976562 4.796875 -14.488281 5.171875 -14.875 C 5.554688 -15.257812 6.0625 -15.453125 6.6875 -15.453125 C 7.71875 -15.453125 8.476562 -15.132812 8.96875 -14.5 C 9.46875 -13.875 9.71875 -12.972656 9.71875 -11.796875 L 9.71875 0 L 6.125 0 L 6.125 -11.421875 C 6.125 -11.753906 6.054688 -12.039062 5.921875 -12.28125 C 5.785156 -12.519531 5.582031 -12.640625 5.3125 -12.640625 C 4.9375 -12.640625 4.6875 -12.46875 4.5625 -12.125 C 4.445312 -11.78125 4.390625 -11.328125 4.390625 -10.765625 L 4.390625 0 L 0.734375 0 Z M 0.734375 -15.296875 "/></g></g><g style="fill:#000000;fill-opacity:1;"><g transform="translate(73.598638, 24.758299)"><path style="stroke:none" d="M 5.1875 0.171875 C 2.132812 0.171875 0.609375 -1.410156 0.609375 -4.578125 L 0.609375 -10.71875 C 0.609375 -12.164062 1.015625 -13.316406 1.828125 -14.171875 C 2.640625 -15.023438 3.757812 -15.453125 5.1875 -15.453125 C 6.601562 -15.453125 7.71875 -15.023438 8.53125 -14.171875 C 9.34375 -13.316406 9.75 -12.164062 9.75 -10.71875 L 9.75 -4.578125 C 9.75 -1.410156 8.226562 0.171875 5.1875 0.171875 Z M 5.1875 -2.65625 C 5.476562 -2.65625 5.691406 -2.757812 5.828125 -2.96875 C 5.960938 -3.175781 6.03125 -3.460938 6.03125 -3.828125 L 6.03125 -11.296875 C 6.03125 -12.191406 5.75 -12.640625 5.1875 -12.640625 C 4.613281 -12.640625 4.328125 -12.191406 4.328125 -11.296875 L 4.328125 -3.828125 C 4.328125 -3.460938 4.394531 -3.175781 4.53125 -2.96875 C 4.675781 -2.757812 4.894531 -2.65625 5.1875 -2.65625 Z M 5.1875 -2.65625 "/></g></g></g></svg>